<svg xmlns="http://www.w3.org/2000/svg" viewBox="0 0 101.82 101.78"><defs><style>.cls-1{fill:#1daa99;}.cls-2,.cls-3,.cls-5,.cls-6,.cls-8{fill:none;}.cls-2,.cls-5{stroke:#fc7572;}.cls-10,.cls-2,.cls-3,.cls-5,.cls-6,.cls-7,.cls-8{stroke-miterlimit:10;}.cls-2,.cls-3,.cls-7,.cls-8{stroke-width:2px;}.cls-3,.cls-7{stroke:#f44545;}.cls-4{fill:#f44545;}.cls-5,.cls-6{stroke-width:0.75px;}.cls-10,.cls-6,.cls-8{stroke:#fff;}.cls-7{fill:#fc7572;}.cls-10,.cls-9{fill:#fff;}</style></defs><title>Recurso 42</title><g id="Capa_2" data-name="Capa 2"><g id="Capa_1-2" data-name="Capa 1"><ellipse class="cls-1" cx="50.91" cy="50.89" rx="50.91" ry="50.89"/><circle class="cls-2" cx="27.3" cy="57.04" r="11.39"/><circle class="cls-2" cx="75.28" cy="57.04" r="11.39"/><path class="cls-3" d="M35.81,39.91,25.75,58.23a.32.32,0,0,0,.28.47H46.14a.32.32,0,0,0,.28-.47L36.36,39.91A.31.31,0,0,0,35.81,39.91Z"/><line class="cls-3" x1="31.75" y1="32.44" x2="38.9" y2="44.64"/><path class="cls-4" d="M76.75,58.37l-1.39.82a.42.42,0,0,1-.58-.15L68.29,48a.42.42,0,0,1,.15-.58l1.39-.82a.42.42,0,0,1,.58.15L76.9,57.79A.42.42,0,0,1,76.75,58.37Z"/><line class="cls-5" x1="46.18" y1="58.56" x2="46.18" y2="58.56"/><line class="cls-6" x1="46.18" y1="58.56" x2="46.18" y2="64.84"/><path class="cls-7" d="M64.72,44.59s3.14-.32,5.36,3.94"/><path class="cls-8" d="M61.78,38s-2.24-5.1,2.32-7.12l3.57-1.12"/><path class="cls-9" d="M35.79,34.61l-6.59.91c-1.63.22-3.1-.57-3.27-1.76h0a3.56,3.56,0,0,1,2.74-3.41l6.52-.08c1.63-.22,3.1.57,3.27,1.76h0C38.62,33.23,37.42,34.39,35.79,34.61Z"/><path class="cls-10" d="M48,65.48H46a.35.35,0,0,1-.35-.35v-.57a.38.38,0,0,1,.38-.38h1.87a.38.38,0,0,1,.38.38v.57A.35.35,0,0,1,48,65.48Z"/><path class="cls-3" d="M46.25,58.69l15.82-20a1.09,1.09,0,0,0-1-1.76L36.46,40.34a.12.12,0,0,0-.09.17l9.68,18.15A.12.12,0,0,0,46.25,58.69Z"/><path class="cls-4" d="M67,45l-1.81,1.06a.42.42,0,0,1-.58-.15L60,38.09a.42.42,0,0,1,.15-.58L62,36.45a.42.42,0,0,1,.58.15l4.59,7.84A.42.42,0,0,1,67,45Z"/><circle class="cls-4" cx="67.72" cy="29.73" r="1.21"/><circle class="cls-4" cx="75.76" cy="58.29" r="1.23"/><circle class="cls-6" cx="45.84" cy="57.49" r="4.48"/></g></g></svg>